# xmcd CD database file
#
# Track frame offsets:
#	150
#	21737
#	58537
#	79205
#	101306
#	116497
#	123862
#	149540
#	177271
#	200694
#	241265
#
# Disc length: 3690 seconds
#
# Revision: 0
# Processed by: cddbd v1.5.1PL2 Copyright (c) Steve Scherf et al.
# Submitted via: CDex 1.51
#
DISCID=980e680b
DTITLE=Winduo (Anders Hagberg and Yasuhito Mori) - Tallinn
DYEAR=2005
DGENRE=Jazz
TTITLE0=Asian Dream
TTITLE1=Ali Khan
TTITLE2=Beatrice
TTITLE3=Tutu
TTITLE4=Nordic Coast
TTITLE5=Stigen
TTITLE6=Konomichi
TTITLE7=Blues For Al
TTITLE8=Momo
TTITLE9=Small Talk
TTITLE10=Silhuette
EXTD=YEAR: 2005
EXTT0=
EXTT1=
EXTT2=
EXTT3=
EXTT4=
EXTT5=
EXTT6=
EXTT7=
EXTT8=
EXTT9=
EXTT10=
PLAYORDER=
